<svg
    width="215"
    height="73"
    viewBox="0 0 215 73"
    fill="none"
    class="exo-logo"
  >
    <mask
      id="mask0_3_164"
      maskUnits="userSpaceOnUse"
      x="33"
      y="12"
      width="42"
      height="61"
    >
      <path
        d="M33.3453 12.7775H74.2261V72.0242H33.3453V12.7775Z"
        fill="white"
      />
    </mask>
    <g mask="url(#mask0_3_164)">
      <path
        d="M74.1758 71.7625C72.28 68.7419 70.3816 65.7214 68.4833 62.6996L65.6326 58.1783L62.7718 53.6557L57.0402 44.618L51.6647 36.1515L58.5864 25.9866L60.4092 23.3146C61.0194 22.4252 61.6245 21.5332 62.2384 20.6463L65.9194 15.3261L67.4089 13.1762L47.7749 13.0441L47.361 13.7838C46.7559 14.8669 46.1646 15.9564 45.567 17.0433L45.1204 17.8598L44.6801 18.6813L43.7957 20.318L42.0446 23.6027L41.1526 25.2972C40.813 24.7815 40.4733 24.2657 40.1324 23.7499L39.0882 22.1887L38.034 20.6325L36.9798 19.0801L35.9117 17.5352C35.1946 16.5049 34.4687 15.4809 33.7315 14.4656C33.7101 14.4292 33.68 14.4065 33.6384 14.3952C33.5982 14.3851 33.5592 14.3902 33.5227 14.4115C33.4862 14.4329 33.4636 14.4631 33.4523 14.5046C33.4422 14.5449 33.4472 14.5839 33.4686 14.6204C34.0033 15.7539 34.553 16.8798 35.1179 17.9994L35.962 19.6789L36.8187 21.3521L37.6817 23.0202L38.5535 24.6833C39.1398 25.7891 39.7248 26.8962 40.3186 27.997L41.1765 29.5871L42.1981 27.9844C42.8648 26.9365 43.5152 25.8835 44.1744 24.8318L46.1332 21.6704L47.1044 20.0815L47.5887 19.2914L48.0693 18.5001C48.5561 17.695 49.0442 16.8924 49.5261 16.0847C49.911 16.0847 61.6484 16.0407 62.1151 16.0319L60.0985 19.2348C59.5248 20.1481 58.9411 21.0527 58.3624 21.9635L56.6201 24.6884L49.6443 35.5854L49.2807 36.1515L49.6443 36.6786L55.6929 45.5074L61.7541 54.3275L64.7847 58.7343L67.8266 63.1374C69.852 66.0762 71.885 69.0086 73.9242 71.9348C73.9481 71.9688 73.9796 71.9889 74.0198 71.9977C74.0601 72.0053 74.0978 71.9977 74.1318 71.9751C74.1658 71.9524 74.1871 71.921 74.196 71.8807C74.2048 71.8405 74.1972 71.8027 74.1758 71.7687V71.7625Z"
        fill="white"
      />
    </g>
    <mask
      id="mask1_3_164"
      maskUnits="userSpaceOnUse"
      x="8"
      y="0"
      width="42"
      height="60"
    >
      <path
        d="M8.28543 0.286499H49.126V59.4754H8.28543V0.286499Z"
        fill="white"
      />
    </mask>
    <g mask="url(#mask1_3_164)">
      <path
        d="M47.3912 54.2647L46.547 52.5852L45.6916 50.9133L44.8273 49.2452L43.9555 47.5821C43.3693 46.475 42.7855 45.3679 42.1905 44.2672L41.3325 42.677L40.311 44.281C39.6443 45.3264 38.9939 46.3806 38.3346 47.4323L36.3746 50.595L35.4047 52.1827L34.9191 52.974L34.4398 53.764C33.9529 54.5704 33.4699 55.3755 32.9893 56.1794C32.6056 56.1794 20.867 56.2259 20.399 56.2348L22.4105 53.0318C22.9855 52.1185 23.5692 51.2115 24.1479 50.3032L25.8903 47.5758L32.866 36.68L33.2283 36.1139L32.866 35.5868L26.8174 26.7756L20.7562 17.9757L17.7257 13.5763L14.6812 9.18331C12.6571 6.25211 10.6254 3.3272 8.58484 0.407318C8.56093 0.374609 8.53074 0.353223 8.49174 0.345675C8.45149 0.336868 8.415 0.344417 8.38104 0.364545C8.34707 0.38719 8.32443 0.41864 8.31562 0.458897C8.30555 0.499154 8.31184 0.536895 8.33449 0.572119C10.2316 3.58887 12.1287 6.6031 14.0271 9.61733L16.8765 14.1349L19.7372 18.6474L25.4676 27.6688L30.8444 36.1151L23.9265 46.28L22.1036 48.952C21.4934 49.8402 20.8909 50.7334 20.2757 51.6203L16.5934 56.9405L15.1052 59.0905L34.7392 59.2226L35.1544 58.4766C35.7595 57.3934 36.3533 56.3039 36.9483 55.217L37.3949 54.3993L37.8377 53.5816L38.7234 51.9449L40.4645 48.664L41.3564 46.9706L42.3767 48.5142L43.4208 50.0755L44.4751 51.6342L45.5293 53.1853L46.5974 54.7314C47.3132 55.7617 48.0391 56.7833 48.7775 57.7997C48.8002 57.8299 48.8304 57.8501 48.8681 57.8576C48.9058 57.8652 48.9423 57.8589 48.975 57.8387C49.0077 57.8199 49.0304 57.7909 49.0417 57.7545C49.053 57.7167 49.0505 57.6815 49.0342 57.6463C48.5033 56.5153 47.956 55.3881 47.3912 54.2647Z"
        fill="white"
      />
    </g>
    <path
      d="M14.9232 42.4025H6.20887V35.4921H18.2633C18.4935 35.4921 18.686 35.2997 18.686 35.1462V30.2713C18.686 30.0789 18.4935 29.9254 18.2633 29.9254H6.20887V22.9773H14.9232V17.4105H0.757841C0.527622 17.4105 0.335144 17.6017 0.335144 17.7552V47.7768C0.335144 47.9302 0.527622 48.1227 0.757841 48.1227H14.9232V42.4025Z"
      fill="white"
    />
    <path
      d="M79.8531 32.8427C79.8531 31.2312 78.5863 29.9254 76.9735 29.9254C75.3607 29.9254 74.0939 31.2312 74.0939 32.8427C74.0939 34.4178 75.3607 35.7224 76.9735 35.7224C78.5863 35.7224 79.8531 34.4178 79.8531 32.8427ZM91.7541 32.7283C91.7541 25.0883 86.8012 17.4105 77.0113 17.4105C67.0691 17.4105 62.193 25.0883 62.193 32.7283C62.193 40.406 67.0691 48.1227 77.0113 48.1227C86.8012 48.1227 91.7541 40.406 91.7541 32.7283ZM85.9948 32.8427C85.9948 37.7956 82.963 42.7484 77.0113 42.7484C70.9841 42.7484 67.9899 37.7956 67.9899 32.8427C67.9899 27.8144 70.9841 22.8238 77.0113 22.8238C82.963 22.8238 85.9948 27.8144 85.9948 32.8427Z"
      fill="white"
    />
    <path
      d="M110.757 42.4792C107.033 42.6327 99.1254 42.249 99.1254 32.766C99.1254 25.472 104.077 22.6691 110.757 23.015V29.8109H116.631V17.7552C116.631 17.6017 116.477 17.4105 116.208 17.4105H111.218C103.693 17.4105 93.2126 19.1378 93.2126 32.766C93.2126 45.896 103.578 48.1227 111.218 48.1227H116.208C116.477 48.1227 116.631 47.9302 116.631 47.7768V42.4792H110.757Z"
      fill="white"
    />
    <path
      d="M134.406 42.4025H117.821V47.7768C117.821 47.9302 118.014 48.1227 118.244 48.1227H134.406C134.675 48.1227 134.828 47.9302 134.828 47.7768V42.7862C134.828 42.595 134.675 42.4025 134.406 42.4025ZM123.695 36.5288V17.7552C123.695 17.6017 123.541 17.4105 123.311 17.4105H118.244C118.014 17.4105 117.821 17.6017 117.821 17.7552V36.5288H123.695Z"
      fill="white"
    />
    <path
      d="M153.371 32.8427C153.371 31.2312 152.105 29.9254 150.492 29.9254C148.879 29.9254 147.612 31.2312 147.612 32.8427C147.612 34.4178 148.879 35.7224 150.492 35.7224C152.105 35.7224 153.371 34.4178 153.371 32.8427ZM165.272 32.7283C165.272 25.0883 160.319 17.4105 150.529 17.4105C140.587 17.4105 135.711 25.0883 135.711 32.7283C135.711 40.406 140.587 48.1227 150.529 48.1227C160.319 48.1227 165.272 40.406 165.272 32.7283ZM159.513 32.8427C159.513 37.7956 156.481 42.7484 150.529 42.7484C144.502 42.7484 141.508 37.7956 141.508 32.8427C141.508 27.8144 144.502 22.8238 150.529 22.8238C156.481 22.8238 159.513 27.8144 159.513 32.8427Z"
      fill="white"
    />
    <path
      d="M189.382 17.4105H184.391C184.122 17.4105 183.968 17.6017 183.968 17.7552V37.8723C183.968 40.9822 181.128 42.4792 178.248 42.4792C175.407 42.4792 172.874 40.8664 172.528 37.8346V22.9773H166.731V37.8723C166.731 44.2065 171.914 48.1227 178.248 48.1227C184.775 48.1227 189.765 44.36 189.765 37.8723V17.7552C189.765 17.6017 189.573 17.4105 189.382 17.4105Z"
      fill="white"
    />
    <path
      d="M196.368 17.4105H191.34C191.109 17.4105 190.917 17.6017 190.917 17.7552V29.8109H196.791V23.015C203.471 22.6691 208.424 25.472 208.424 32.766C208.424 42.249 200.514 42.6327 196.791 42.4792V35.7224H190.917V47.7768C190.917 47.9302 191.109 48.1227 191.34 48.1227H196.368C204.008 48.1227 214.335 45.896 214.335 32.766C214.335 19.1378 203.855 17.4105 196.368 17.4105Z"
      fill="white"
    />
    <path
      d="M79.3125 68.71C78.5539 68.71 77.8947 68.5691 77.3348 68.2873C76.7775 68.003 76.3485 67.6067 76.0466 67.0997C75.7472 66.594 75.5887 66.0253 75.5686 65.3938H76.8316C76.8518 66.0153 77.0782 66.526 77.511 66.9286C77.9437 67.3286 78.5438 67.5274 79.3125 67.5274C79.9968 67.5274 80.5416 67.3651 80.9479 67.0393C81.353 66.711 81.5568 66.2681 81.5568 65.7108C81.5568 65.2781 81.4423 64.9233 81.2146 64.644C80.9894 64.366 80.7076 64.1484 80.3692 63.9898C80.0333 63.8288 79.5817 63.6602 79.0156 63.4816C78.3174 63.2401 77.7626 63.0174 77.3499 62.8123C76.9398 62.6048 76.5876 62.2965 76.2932 61.8864C76.0013 61.4738 75.8554 60.9328 75.8554 60.2611C75.8554 59.7113 76.0013 59.2144 76.2932 58.7716C76.5876 58.3287 76.9952 57.9803 77.516 57.7249C78.0393 57.467 78.6281 57.3374 79.2823 57.3374C79.9025 57.3374 80.4673 57.472 80.9781 57.74C81.4914 58.0092 81.9002 58.379 82.2059 58.8521C82.5104 59.3251 82.6689 59.8472 82.6789 60.4171H81.4159C81.3958 59.8572 81.1794 59.4006 80.7667 59.0483C80.3566 58.6961 79.8459 58.5199 79.2319 58.5199C78.6306 58.5199 78.1362 58.6684 77.7475 58.9628C77.3575 59.2584 77.1638 59.6912 77.1638 60.2611C77.1638 60.6611 77.2707 60.9932 77.4858 61.2574C77.7034 61.5191 77.9714 61.7241 78.2909 61.8713C78.613 62.0198 79.0583 62.1921 79.6295 62.3896C80.3138 62.611 80.8737 62.8325 81.3102 63.0539C81.7493 63.2753 82.1179 63.6011 82.4173 64.0301C82.7192 64.4566 82.8702 65.0164 82.8702 65.7108C82.8702 66.2782 82.7142 66.7915 82.4022 67.2507C82.0902 67.7111 81.665 68.0696 81.129 68.3275C80.5919 68.5816 79.9868 68.71 79.3125 68.71Z"
      fill="white"
    />
    <path
      d="M96.7371 68.71C95.6929 68.71 94.7343 68.4584 93.8587 67.9551C92.9856 67.4494 92.2962 66.76 91.7905 65.887C91.2873 65.0114 91.0357 64.0578 91.0357 63.0237C91.0357 61.9908 91.2873 61.0385 91.7905 60.1654C92.2962 59.2899 92.9856 58.6005 93.8587 58.0973C94.7343 57.5915 95.6929 57.3374 96.7371 57.3374C97.78 57.3374 98.7373 57.5915 99.6104 58.0973C100.486 58.6005 101.177 59.2899 101.684 60.1654C102.189 61.0385 102.443 61.9908 102.443 63.0237C102.443 64.0578 102.189 65.0114 101.684 65.887C101.177 66.76 100.486 67.4494 99.6104 67.9551C98.7373 68.4584 97.78 68.71 96.7371 68.71ZM96.7371 67.5274C97.5384 67.5274 98.2731 67.3286 98.9411 66.9286C99.6116 66.526 100.144 65.9826 100.536 65.2982C100.931 64.6138 101.13 63.8565 101.13 63.0237C101.13 62.1921 100.931 61.4335 100.536 60.7492C100.144 60.0648 99.6116 59.5239 98.9411 59.1238C98.2731 58.7212 97.5384 58.5199 96.7371 58.5199C95.9382 58.5199 95.2035 58.7212 94.533 59.1238C93.865 59.5239 93.3328 60.0648 92.9378 60.7492C92.5415 61.4335 92.344 62.1921 92.344 63.0237C92.344 63.8565 92.5415 64.6138 92.9378 65.2982C93.3328 65.9826 93.865 66.526 94.533 66.9286C95.2035 67.3286 95.9382 67.5274 96.7371 67.5274Z"
      fill="white"
    />
    <path
      d="M116.846 68.554H111.316V57.4934H112.579V67.3714H116.846V68.554Z"
      fill="white"
    />
    <path
      d="M129.392 68.71C128.57 68.71 127.845 68.5338 127.219 68.1816C126.591 67.8294 126.106 67.3337 125.764 66.6921C125.422 66.048 125.251 65.3108 125.251 64.478V57.4934H126.514V64.478C126.514 65.3938 126.772 66.1323 127.289 66.6921C127.805 67.2494 128.507 67.5274 129.392 67.5274C130.274 67.5274 130.974 67.2494 131.491 66.6921C132.007 66.1323 132.266 65.3938 132.266 64.478V57.4934H133.529V64.478C133.529 65.3108 133.358 66.048 133.016 66.6921C132.673 67.3337 132.188 67.8294 131.561 68.1816C130.934 68.5338 130.21 68.71 129.392 68.71Z"
      fill="white"
    />
    <path
      d="M145.883 68.554H144.619V58.681H141.771V57.4934H148.726V58.681H145.883V68.554Z"
      fill="white"
    />
    <path d="M158.471 68.554H157.208V57.4934H158.471V68.554Z" fill="white" />
    <path
      d="M173.133 68.71C172.089 68.71 171.13 68.4584 170.255 67.9551C169.382 67.4494 168.692 66.76 168.186 65.887C167.683 65.0114 167.432 64.0578 167.432 63.0237C167.432 61.9908 167.683 61.0385 168.186 60.1654C168.692 59.2899 169.382 58.6005 170.255 58.0973C171.13 57.5915 172.089 57.3374 173.133 57.3374C174.176 57.3374 175.133 57.5915 176.006 58.0973C176.882 58.6005 177.573 59.2899 178.08 60.1654C178.585 61.0385 178.839 61.9908 178.839 63.0237C178.839 64.0578 178.585 65.0114 178.08 65.887C177.573 66.76 176.882 67.4494 176.006 67.9551C175.133 68.4584 174.176 68.71 173.133 68.71ZM173.133 67.5274C173.934 67.5274 174.669 67.3286 175.337 66.9286C176.008 66.526 176.54 65.9826 176.932 65.2982C177.327 64.6138 177.526 63.8565 177.526 63.0237C177.526 62.1921 177.327 61.4335 176.932 60.7492C176.54 60.0648 176.008 59.5239 175.337 59.1238C174.669 58.7212 173.934 58.5199 173.133 58.5199C172.334 58.5199 171.599 58.7212 170.929 59.1238C170.261 59.5239 169.729 60.0648 169.334 60.7492C168.937 61.4335 168.74 62.1921 168.74 63.0237C168.74 63.8565 168.937 64.6138 169.334 65.2982C169.729 65.9826 170.261 66.526 170.929 66.9286C171.599 67.3286 172.334 67.5274 173.133 67.5274Z"
      fill="white"
    />
    <path
      d="M195.959 66.214V57.4934H197.192V68.554H196.402L188.944 59.8333V68.554H187.711V57.4934H188.501L195.959 66.214Z"
      fill="white"
    />
  </svg>